<?xml version="1.0" encoding="UTF-8" standalone="no"?>
<!-- Created with Inkscape (http://www.inkscape.org/) -->

<svg
   width="210mm"
   height="297mm"
   viewBox="0 0 210 297"
   version="1.1"
   id="svg1"
   xml:space="preserve"
   inkscape:version="1.4.2 (f4327f4, 2025-05-13)"
   sodipodi:docname="prénom dragon bleu.svg"
   xmlns:inkscape="http://www.inkscape.org/namespaces/inkscape"
   xmlns:sodipodi="http://sodipodi.sourceforge.net/DTD/sodipodi-0.dtd"
   xmlns="http://www.w3.org/2000/svg"
   xmlns:svg="http://www.w3.org/2000/svg"
   xmlns:inkstitch="http://inkstitch.org/namespace"><sodipodi:namedview
     id="namedview1"
     pagecolor="#ffffff"
     bordercolor="#666666"
     borderopacity="1.0"
     inkscape:showpageshadow="2"
     inkscape:pageopacity="0.0"
     inkscape:pagecheckerboard="0"
     inkscape:deskcolor="#d1d1d1"
     inkscape:document-units="mm"
     inkscape:zoom="1.7638889"
     inkscape:cx="442.20472"
     inkscape:cy="429.44882"
     inkscape:window-width="1920"
     inkscape:window-height="1009"
     inkscape:window-x="1912"
     inkscape:window-y="488"
     inkscape:window-maximized="1"
     inkscape:current-layer="layer1" /><metadata
     id="metadata1"><inkstitch:min_stitch_len_mm>0</inkstitch:min_stitch_len_mm><inkstitch:collapse_len_mm>3</inkstitch:collapse_len_mm><inkstitch:inkstitch_svg_version>3</inkstitch:inkstitch_svg_version></metadata><defs
     id="defs1"><inkscape:path-effect
       effect="spiro"
       id="path-effect6"
       is_visible="true"
       lpeversion="1" /><inkscape:path-effect
       effect="spiro"
       id="path-effect5"
       is_visible="true"
       lpeversion="1" /><inkscape:path-effect
       effect="spiro"
       id="path-effect4"
       is_visible="true"
       lpeversion="1" /></defs><g
     inkscape:groupmode="layer"
     id="layer3"
     inkscape:label="Calque 3" /><g
     inkscape:groupmode="layer"
     id="layer2"
     inkscape:label="Calque 2"
     transform="matrix(0.18960388,0,0,0.18960388,103.66704,56.828102)" /><g
     inkscape:groupmode="layer"
     id="layer2-5"
     inkscape:label="Calque 2"
     transform="matrix(0.18960388,0,0,0.18960388,47.777987,96.692648)" /><g
     inkscape:label="Calque 1"
     inkscape:groupmode="layer"
     id="layer1"><path
       id="path9"
       style="fill:#5f8dd3;fill-opacity:1;fill-rule:nonzero;stroke:none;stroke-width:0.20275;stroke-linecap:round;stroke-linejoin:round;stroke-dasharray:none;stroke-opacity:1"
       d="m 94.468225,105.72934 c -0.0017,2e-4 -0.0034,2.3e-4 -0.006,4.4e-4 8.63e-4,0.007 0.0017,0.0143 0.0026,0.0214 8.62e-4,-0.007 0.0017,-0.0146 0.0034,-0.0218 z m -0.0034,0.0312 c -0.390123,2.60872 -2.690473,4.54396 -5.400968,4.5441 -0.01164,-6e-5 -0.02078,-0.009 -0.0294,-0.0209 -0.01725,0.009 -0.03518,0.0176 -0.05346,0.0254 0.221429,2.75847 2.564401,4.98404 5.417454,4.9839 2.847862,-1.5e-4 5.214538,-2.13051 5.439296,-4.88899 -0.0052,-0.008 -0.01061,-0.0158 -0.01561,-0.0254 -8.63e-4,-0.002 -0.0026,-0.003 -0.0043,-0.006 -2.714271,-0.0275 -4.996531,-1.99255 -5.352845,-4.61183 z" /><path
       id="path9-6"
       style="fill:#d7e3f4;fill-opacity:1;fill-rule:nonzero;stroke:none;stroke-width:0.20275;stroke-linecap:round;stroke-linejoin:round;stroke-dasharray:none;stroke-opacity:1"
       d="m 83.315813,105.62773 c -0.0017,2e-4 -0.0034,2.3e-4 -0.006,4.4e-4 8.63e-4,0.007 0.0017,0.0143 0.0026,0.0214 8.63e-4,-0.007 0.0017,-0.0146 0.0034,-0.0218 z m -0.0034,0.0312 c -0.390123,2.60872 -2.690473,4.54396 -5.400968,4.5441 -0.01164,-6e-5 -0.02078,-0.009 -0.0294,-0.0209 -0.01724,0.009 -0.03518,0.0176 -0.05346,0.0254 0.221429,2.75847 2.564401,4.98404 5.417454,4.9839 2.847862,-1.5e-4 5.214538,-2.1305 5.439296,-4.88899 -0.0052,-0.008 -0.01061,-0.0158 -0.01561,-0.0254 -8.63e-4,-0.002 -0.0026,-0.003 -0.0043,-0.006 -2.714271,-0.0275 -4.996531,-1.99255 -5.352845,-4.61183 z" /><path
       id="path9-6-4"
       style="fill:#d7e3f4;fill-opacity:1;fill-rule:nonzero;stroke:none;stroke-width:0.20275;stroke-linecap:round;stroke-linejoin:round;stroke-dasharray:none;stroke-opacity:1"
       d="m 105.59098,105.78401 c -0.002,2e-4 -0.003,2.4e-4 -0.006,4.4e-4 8.6e-4,0.007 0.002,0.0143 0.003,0.0214 8.7e-4,-0.007 0.002,-0.0146 0.003,-0.0218 z m -0.003,0.0312 c -0.39012,2.60871 -2.69047,4.54395 -5.40096,4.5441 -0.0116,-6e-5 -0.0208,-0.009 -0.0294,-0.0209 -0.0172,0.009 -0.0352,0.0176 -0.0535,0.0254 0.22143,2.75847 2.5644,4.98405 5.41746,4.9839 2.84786,-1.4e-4 5.21454,-2.1305 5.43929,-4.88899 -0.005,-0.008 -0.0106,-0.0158 -0.0156,-0.0254 -8.7e-4,-0.002 -0.003,-0.003 -0.004,-0.006 -2.71427,-0.0275 -4.99653,-1.99256 -5.35284,-4.61183 z" /><path
       id="path9-6-5"
       style="fill:#d7e3f4;fill-opacity:1;fill-rule:nonzero;stroke:none;stroke-width:0.20275;stroke-linecap:round;stroke-linejoin:round;stroke-dasharray:none;stroke-opacity:1"
       d="m 116.5651,105.87742 c -0.002,2e-4 -0.003,2.4e-4 -0.006,4.4e-4 8.6e-4,0.007 0.002,0.0143 0.003,0.0214 8.6e-4,-0.007 0.002,-0.0146 0.003,-0.0218 z m -0.003,0.0312 c -0.39013,2.60871 -2.69048,4.54395 -5.40097,4.5441 -0.0116,-6e-5 -0.0208,-0.009 -0.0294,-0.0209 -0.0173,0.009 -0.0352,0.0176 -0.0535,0.0254 0.22143,2.75847 2.5644,4.98405 5.41745,4.9839 2.84786,-1.5e-4 5.21454,-2.1305 5.4393,-4.88899 -0.005,-0.008 -0.0106,-0.0158 -0.0156,-0.0254 -8.6e-4,-0.002 -0.003,-0.003 -0.004,-0.006 -2.71427,-0.0275 -4.99653,-1.99256 -5.35285,-4.61183 z" /><path
       id="path9-4"
       style="fill:#afc6e9;fill-opacity:1;fill-rule:nonzero;stroke:none;stroke-width:0.20275;stroke-linecap:round;stroke-linejoin:round;stroke-dasharray:none;stroke-opacity:1"
       d="m 99.90947,111.86399 c -0.0017,2e-4 -0.0035,2.3e-4 -0.006,4.4e-4 8.62e-4,0.007 0.0017,0.0143 0.0026,0.0214 8.63e-4,-0.007 0.0017,-0.0146 0.0035,-0.0218 z m -0.0035,0.0312 c -0.390123,2.60872 -2.690473,4.54396 -5.400967,4.5441 -0.01164,-6e-5 -0.02078,-0.009 -0.0294,-0.0209 -0.01725,0.009 -0.03518,0.0176 -0.05346,0.0254 0.22143,2.75847 2.564401,4.98404 5.417454,4.9839 2.847863,-1.5e-4 5.214533,-2.1305 5.439293,-4.88899 -0.005,-0.008 -0.0106,-0.0158 -0.0156,-0.0254 -8.6e-4,-0.002 -0.003,-0.003 -0.004,-0.006 -2.71427,-0.0275 -4.99653,-1.99256 -5.35284,-4.61184 z" /><path
       id="path9-6-3"
       style="fill:#d7e3f4;fill-opacity:1;fill-rule:nonzero;stroke:none;stroke-width:0.20275;stroke-linecap:round;stroke-linejoin:round;stroke-dasharray:none;stroke-opacity:1"
       d="m 88.757058,111.76238 c -0.0017,2e-4 -0.0034,2.3e-4 -0.006,4.4e-4 8.62e-4,0.007 0.0017,0.0143 0.0026,0.0214 8.62e-4,-0.007 0.0017,-0.0146 0.0034,-0.0218 z m -0.0034,0.0312 c -0.390124,2.60872 -2.690474,4.54396 -5.400968,4.54411 -0.01164,-7e-5 -0.02078,-0.009 -0.0294,-0.021 -0.01725,0.009 -0.03518,0.0176 -0.05346,0.0254 0.22143,2.75847 2.564401,4.98404 5.417454,4.9839 2.847863,-1.5e-4 5.214538,-2.1305 5.439296,-4.88899 -0.0052,-0.008 -0.01061,-0.0158 -0.01561,-0.0254 -8.62e-4,-0.002 -0.0026,-0.003 -0.0043,-0.006 -2.714272,-0.0275 -4.996532,-1.99256 -5.352845,-4.61184 z" /><path
       id="path9-6-4-8"
       style="fill:#5f8dd3;fill-opacity:1;fill-rule:nonzero;stroke:none;stroke-width:0.20275;stroke-linecap:round;stroke-linejoin:round;stroke-dasharray:none;stroke-opacity:1"
       d="m 111.03223,111.91867 c -0.002,1.9e-4 -0.003,2.3e-4 -0.006,4.4e-4 8.6e-4,0.007 0.002,0.0143 0.003,0.0214 8.6e-4,-0.007 0.002,-0.0146 0.003,-0.0218 z m -0.003,0.0312 c -0.39012,2.60871 -2.69047,4.54395 -5.40097,4.5441 -0.0116,-6e-5 -0.0208,-0.009 -0.0294,-0.0209 -0.0173,0.009 -0.0352,0.0176 -0.0535,0.0254 0.22143,2.75848 2.5644,4.98405 5.41745,4.9839 2.84786,-1.4e-4 5.21454,-2.1305 5.4393,-4.88899 -0.005,-0.008 -0.0106,-0.0158 -0.0156,-0.0254 -8.6e-4,-0.002 -0.003,-0.003 -0.004,-0.006 -2.71427,-0.0275 -4.99653,-1.99255 -5.35285,-4.61183 z" /><path
       id="path9-8"
       style="fill:#d7e3f4;fill-opacity:1;fill-rule:nonzero;stroke:none;stroke-width:0.20275;stroke-linecap:round;stroke-linejoin:round;stroke-dasharray:none;stroke-opacity:1"
       d="m 94.1826,117.95553 c -0.0017,2e-4 -0.0034,2.3e-4 -0.006,4.4e-4 8.62e-4,0.007 0.0017,0.0143 0.0026,0.0214 8.62e-4,-0.007 0.0017,-0.0146 0.0034,-0.0218 z m -0.0034,0.0312 c -0.390123,2.60872 -2.690473,4.54396 -5.400968,4.5441 -0.01164,-6e-5 -0.02078,-0.009 -0.0294,-0.0209 -0.01725,0.009 -0.03518,0.0176 -0.05346,0.0254 0.22143,2.75847 2.564402,4.98404 5.417455,4.9839 2.847862,-1.5e-4 5.214537,-2.13051 5.439295,-4.88899 -0.0052,-0.008 -0.0106,-0.0158 -0.01561,-0.0254 -8.62e-4,-0.002 -0.0026,-0.003 -0.0043,-0.006 -2.714271,-0.0275 -4.996531,-1.99255 -5.352845,-4.61183 z" /><path
       id="path9-6-4-9"
       style="fill:#d7e3f4;fill-opacity:1;fill-rule:nonzero;stroke:none;stroke-width:0.20275;stroke-linecap:round;stroke-linejoin:round;stroke-dasharray:none;stroke-opacity:1"
       d="m 105.30536,118.0102 c -0.002,2e-4 -0.003,2.4e-4 -0.006,4.4e-4 8.7e-4,0.007 0.002,0.0143 0.003,0.0214 8.6e-4,-0.007 0.002,-0.0146 0.003,-0.0218 z m -0.003,0.0312 c -0.39012,2.60871 -2.69047,4.54395 -5.400968,4.5441 -0.01164,-6e-5 -0.02078,-0.009 -0.0294,-0.0209 -0.01725,0.009 -0.03518,0.0176 -0.05346,0.0254 0.221428,2.75847 2.564398,4.98405 5.417448,4.9839 2.84786,-1.4e-4 5.21454,-2.1305 5.4393,-4.88899 -0.005,-0.008 -0.0106,-0.0158 -0.0156,-0.0254 -8.6e-4,-0.002 -0.003,-0.003 -0.004,-0.006 -2.71427,-0.0275 -4.99653,-1.99256 -5.35285,-4.61183 z" /><path
       sodipodi:type="star"
       style="fill:#0066ff;fill-opacity:1;fill-rule:nonzero;stroke:none;stroke-width:1.05483;stroke-linecap:round;stroke-linejoin:round;stroke-dasharray:none;stroke-opacity:1"
       id="path30-6-5"
       inkscape:flatsided="false"
       sodipodi:sides="5"
       sodipodi:cx="44.119301"
       sodipodi:cy="116.47976"
       sodipodi:r1="78.071564"
       sodipodi:r2="43.173576"
       sodipodi:arg1="0.87926905"
       sodipodi:arg2="1.5075876"
       inkscape:rounded="0.15"
       inkscape:randomized="2.7755576e-17"
       d="m 93.906657,176.61617 c -5.783208,4.78796 -39.567221,-17.52331 -47.060226,-17.04905 -7.493005,0.47425 -38.1943906,26.867 -44.5351189,22.8464 -6.3407285,-4.02059 4.4387146,-43.04566 1.6722052,-50.02538 C 1.217008,125.40842 -33.371236,104.36548 -31.506813,97.092652 -29.642391,89.819828 10.803684,88.012279 16.586892,83.224321 22.3701,78.436363 31.694776,39.03836 39.187781,38.564105 46.680786,38.08985 60.898392,75.99779 67.23912,80.018387 c 6.340729,4.020597 46.69194,0.714238 49.45845,7.693956 2.76651,6.979719 -28.892604,32.215667 -30.757027,39.488487 -1.864422,7.27282 13.749322,44.62738 7.966114,49.41534 z"
       inkscape:transform-center-x="0.25728241"
       inkscape:transform-center-y="-0.18199093"
       transform="matrix(0.03780479,-0.00482901,0.00482901,0.03780479,63.831387,91.313696)" /><path
       sodipodi:type="star"
       style="fill:#2a7fff;fill-opacity:1;fill-rule:nonzero;stroke:none;stroke-width:1.05483;stroke-linecap:round;stroke-linejoin:round;stroke-dasharray:none;stroke-opacity:1"
       id="path30"
       inkscape:flatsided="false"
       sodipodi:sides="5"
       sodipodi:cx="44.119301"
       sodipodi:cy="116.47976"
       sodipodi:r1="78.071564"
       sodipodi:r2="43.173576"
       sodipodi:arg1="0.87926905"
       sodipodi:arg2="1.5075876"
       inkscape:rounded="0.15"
       inkscape:randomized="2.7755576e-17"
       d="m 93.906657,176.61617 c -5.783208,4.78796 -39.567221,-17.52331 -47.060226,-17.04905 -7.493005,0.47425 -38.1943906,26.867 -44.5351189,22.8464 -6.3407285,-4.02059 4.4387146,-43.04566 1.6722052,-50.02538 C 1.217008,125.40842 -33.371236,104.36548 -31.506813,97.092652 -29.642391,89.819828 10.803684,88.012279 16.586892,83.224321 22.3701,78.436363 31.694776,39.03836 39.187781,38.564105 46.680786,38.08985 60.898392,75.99779 67.23912,80.018387 c 6.340729,4.020597 46.69194,0.714238 49.45845,7.693956 2.76651,6.979719 -28.892604,32.215667 -30.757027,39.488487 -1.864422,7.27282 13.749322,44.62738 7.966114,49.41534 z"
       inkscape:transform-center-x="0.63914127"
       inkscape:transform-center-y="-0.45210339"
       transform="matrix(0.09391475,-0.01199623,0.01199623,0.09391475,104.2012,75.325834)" /><path
       sodipodi:type="star"
       style="fill:#2a7fff;fill-opacity:1;fill-rule:nonzero;stroke:none;stroke-width:1.05483;stroke-linecap:round;stroke-linejoin:round;stroke-dasharray:none;stroke-opacity:1"
       id="path30-6"
       inkscape:flatsided="false"
       sodipodi:sides="5"
       sodipodi:cx="44.119301"
       sodipodi:cy="116.47976"
       sodipodi:r1="78.071564"
       sodipodi:r2="43.173576"
       sodipodi:arg1="0.87926905"
       sodipodi:arg2="1.5075876"
       inkscape:rounded="0.15"
       inkscape:randomized="2.7755576e-17"
       d="m 93.906657,176.61617 c -5.783208,4.78796 -39.567221,-17.52331 -47.060226,-17.04905 -7.493005,0.47425 -38.1943906,26.867 -44.5351189,22.8464 -6.3407285,-4.02059 4.4387146,-43.04566 1.6722052,-50.02538 C 1.217008,125.40842 -33.371236,104.36548 -31.506813,97.092652 -29.642391,89.819828 10.803684,88.012279 16.586892,83.224321 22.3701,78.436363 31.694776,39.03836 39.187781,38.564105 46.680786,38.08985 60.898392,75.99779 67.23912,80.018387 c 6.340729,4.020597 46.69194,0.714238 49.45845,7.693956 2.76651,6.979719 -28.892604,32.215667 -30.757027,39.488487 -1.864422,7.27282 13.749322,44.62738 7.966114,49.41534 z"
       inkscape:transform-center-x="0.25728241"
       inkscape:transform-center-y="-0.18199093"
       transform="matrix(0.03780479,-0.00482901,0.00482901,0.03780479,94.437625,78.798635)" /><path
       sodipodi:type="star"
       style="fill:#677821;fill-opacity:1;fill-rule:nonzero;stroke:none;stroke-width:1.05483;stroke-linecap:round;stroke-linejoin:round;stroke-dasharray:none;stroke-opacity:1"
       id="path31"
       inkscape:flatsided="false"
       sodipodi:sides="5"
       sodipodi:cx="39.36433"
       sodipodi:cy="124.73104"
       sodipodi:r1="0.75312668"
       sodipodi:r2="0.46894187"
       sodipodi:arg1="1.1902899"
       sodipodi:arg2="1.8186085"
       inkscape:rounded="0"
       inkscape:randomized="0"
       d="m 39.644035,125.4303 -0.394728,-0.24464 -0.46358,0.0275 0.110693,-0.45101 -0.16939,-0.4324 0.46314,-0.0341 0.35889,-0.29472 0.175543,0.42994 0.391197,0.25025 -0.354648,0.29981 z"
       inkscape:transform-center-x="-0.010823458"
       inkscape:transform-center-y="-0.0029255059"
       transform="matrix(0.1247204,0,0,0.1247204,87.864251,64.235301)" /><path
       sodipodi:type="star"
       style="fill:#0066ff;fill-opacity:1;fill-rule:nonzero;stroke:none;stroke-width:1.05483;stroke-linecap:round;stroke-linejoin:round;stroke-dasharray:none;stroke-opacity:1"
       id="path30-5"
       inkscape:flatsided="false"
       sodipodi:sides="5"
       sodipodi:cx="44.119301"
       sodipodi:cy="116.47976"
       sodipodi:r1="78.071564"
       sodipodi:r2="43.173576"
       sodipodi:arg1="0.87926905"
       sodipodi:arg2="1.5075876"
       inkscape:rounded="0.15"
       inkscape:randomized="2.7755576e-17"
       d="m 93.906657,176.61617 c -5.783208,4.78796 -39.567221,-17.52331 -47.060226,-17.04905 -7.493005,0.47425 -38.1943906,26.867 -44.5351189,22.8464 -6.3407285,-4.02059 4.4387146,-43.04566 1.6722052,-50.02538 C 1.217008,125.40842 -33.371236,104.36548 -31.506813,97.092652 -29.642391,89.819828 10.803684,88.012279 16.586892,83.224321 22.3701,78.436363 31.694776,39.03836 39.187781,38.564105 46.680786,38.08985 60.898392,75.99779 67.23912,80.018387 c 6.340729,4.020597 46.69194,0.714238 49.45845,7.693956 2.76651,6.979719 -28.892604,32.215667 -30.757027,39.488487 -1.864422,7.27282 13.749322,44.62738 7.966114,49.41534 z"
       inkscape:transform-center-x="0.3794887"
       inkscape:transform-center-y="0.65212301"
       transform="matrix(0.08497285,-0.0417553,0.0417553,0.08497285,56.11546,99.769722)" /><g
       inkscape:label="Ink/Stitch Lettering"
       transform="matrix(0.20142693,0,0,0.20142693,71.706038,105.39648)"
       inkstitch:lettering="{&quot;text&quot;: &quot;Pr\u00e9nom&quot;, &quot;text_align&quot;: 0, &quot;back_and_forth&quot;: false, &quot;font&quot;: &quot;magnolia_KOR&quot;, &quot;scale&quot;: 80, &quot;trim_option&quot;: 0, &quot;use_trim_symbols&quot;: false, &quot;color_sort&quot;: 0}"
       id="g4"><g
         inkscape:label="Magnolia KOR scale 80%"
         transform="scale(0.8)"
         id="g37"><g
           inkscape:label="Prénom"
           inkstitch:letter-group="line"
           id="g36"><g
             inkscape:label="Prénom"
             inkstitch:letter-group="word"
             id="g35"><g
   inkscape:label="P"
   id="glyph-1-1-1-1-1-1-1-1-1-1-1-1-1-1-1-1-1-1-1-1-1-1-1-1-1-1-1-1-1-1-1-1-1-1-1"
   inkstitch:letter-group="glyph">
    <path
   d="m 27.3436,-15.8489 c 2.0007,-13.3355 5.2317,-26.5439 6.447,-39.9604 -0.2715,-2.8286 -2.2043,-5.0339 -4.4799,-6.5427"
   style="fill:none;stroke:#4e2990;stroke-width:0.5px;stroke-dasharray:3, 1"
   inkstitch:running_stitch_length_mm="2"
   id="autosatinrun254-1-1-1-1-1-1"
   inkscape:label="AutoSatin Running Stitch 1"
   inkstitch:ties="3"
   inkstitch:min_stitch_length_mm=".5"
   inkstitch:min_jump_stitch_length_mm="3"
   inkstitch:running_stitch_tolerance_mm="0.2" />
    <path
   id="autosatin322-1-1-1-1-1-1"
   style="display:inline;fill:none;stroke:#4e2990;stroke-width:1px"
   d="m 27.9551,-63 c 0,0 -0.125,1.875 -0.125,1.875 0,0 -0.875,7.125 -0.875,7.125 0,0 -5.7337,35.2213 -5.7337,35.2213 m 6.8094,-44.4623 c 0,0 0.9621,-0.3795 0.9621,-0.3795 0,0 1.5053,-0.261 1.5053,-0.261 0,1e-4 2.4569,-0.1185 2.4569,-0.1185 0,0 2.3945,0.1016 2.3945,0.1016 0,0 1.9493,0.3359 1.9493,0.3359 0,0 1.5273,0.6172 1.5273,0.6172 0,0 1.1289,0.9453 1.1289,0.9453 0,0 0.7539,1.3203 0.7539,1.3203 0,0 0.4023,1.7422 0.4023,1.7422 0,0 0.0743,2.2109 0.0743,2.2109 0,0 -0.2305,2.7266 -0.2305,2.7266 0,0 -5,27 -5,27 0,0 -0.6039,3.0195 -0.6039,3.0195 m -14.0955,-8.4257 c 0,0 17.9869,-2.7199 17.9869,-2.7199"
   inkstitch:satin_column="True"
   inkstitch:ties="0"
   inkstitch:pull_compensation_mm="0.3"
   inkstitch:zigzag_underlay="True"
   inkstitch:zigzag_underlay_inset_mm="0.2"
   sodipodi:nodetypes="cccsccsccccccc"
   inkscape:label="AutoSatin 2"
   inkstitch:max_stitch_length_mm="8"
   inkstitch:zigzag_underlay_max_stitch_length_mm="5"
   inkstitch:reverse_rails="none"
   inkstitch:min_stitch_length_mm="0.5"
   inkstitch:min_jump_stitch_length_mm="3"
   inkstitch:start_at_nearest_point="False"
   inkstitch:end_at_nearest_point="False" />
    <path
   d="m 37.2999,-24.257 c 10.6883,1.6805 23.0231,-2.8571 27.3846,-13.3881 5.2059,-10.803 1.4834,-25.8167 -9.9974,-30.8519 -10.5033,-4.9838 -22.9763,-4.9981 -34.0444,-1.9907 -7.1006,1.9445 -14.652,8.8226 -12.14383,16.8038 1.22567,4.3675 7.44193,5.9908 10.74353,3.0288"
   style="fill:none;stroke:#4e2990;stroke-width:0.5px;stroke-dasharray:3, 1"
   inkstitch:running_stitch_length_mm="2"
   id="autosatinrun255-1-1-1-1-1-1"
   inkscape:label="AutoSatin Running Stitch 3"
   inkstitch:ties="3"
   inkstitch:min_stitch_length_mm=".5"
   inkstitch:min_jump_stitch_length_mm="3"
   inkstitch:running_stitch_tolerance_mm="0.2" />
    <path
   id="autosatin323-1-1-1-1-1-1"
   style="display:inline;fill:none;stroke:#4e2990;stroke-width:1px"
   d="m 20.1924,-51.8673 c -0.6399,4.9104 -4.3907,5.754 -8.2373,5.8673 -6.00002,0 -10.00002,-4 -10.00002,-10 0,-10 10.00002,-19 33.00002,-19 28,0 39,12 39,27 0,16 -12,27 -30,27 -4,0 -7,-1 -9,-1 m -15,-30 c 0,0 -2,0 -2,0 -2,0 -4,-2 -4,-5 0,-6 6,-13 21,-13 17,0 25,9 25,21 0,12 -7,22 -18,22 0,0 -6,0 -6,0 0,0 -0.7348,4.2688 -0.7348,4.2688 M 0,-54.6583 c 0,0 15.2824,-1.5643 15.2824,-1.5643 m 15.7367,-20.659 c 0,0 0.1085,8.9182 0.1085,8.9182 M 58.0651,-50 c 0,0 17.6283,0 17.6283,0 m -29.4122,21.0052 c 0,0 1.4984,8.9817 1.4984,8.9817"
   inkstitch:satin_column="True"
   inkstitch:ties="0"
   inkstitch:pull_compensation_mm="0.3"
   inkstitch:zigzag_underlay="True"
   inkstitch:zigzag_underlay_inset_mm="0.2"
   inkscape:label="AutoSatin 4"
   inkstitch:max_stitch_length_mm="8"
   inkstitch:zigzag_underlay_max_stitch_length_mm="5"
   inkstitch:reverse_rails="none"
   inkstitch:min_stitch_length_mm="0.5"
   inkstitch:min_jump_stitch_length_mm="3"
   inkstitch:start_at_nearest_point="False"
   inkstitch:end_at_nearest_point="False" />
    <path
   d="m 35.4079,-24.0527 -13.4771,5.0129"
   style="fill:none;stroke:#4e2990;stroke-width:1px;stroke-dasharray:3, 1"
   inkstitch:running_stitch_length_mm="2"
   inkstitch:running_stitch_tolerance_mm="0.2"
   id="path85-1-1-1-1-1-1" />
    <path
   id="autosatin324-1-1-1-1-1-1"
   style="display:inline;fill:none;stroke:#4e2990;stroke-width:1px"
   d="m 21.2214,-18.7787 c 0,0 -1.2663,7.7787 -1.2663,7.7787 0,0 -0.0608,0.6159 -0.0608,0.6159 m 15.4569,-13.5964 c 0,0 -0.3961,1.9805 -0.3961,1.9805 0,0 -0.7629,4.5775 -0.7629,4.5775 M 20.499,-18.4198 c 0,0 15.5389,-5.7227 15.5389,-5.7227"
   inkstitch:satin_column="True"
   inkstitch:ties="0"
   inkstitch:pull_compensation_mm="0.3"
   inkstitch:zigzag_underlay="True"
   inkstitch:zigzag_underlay_inset_mm="0.2"
   sodipodi:nodetypes="cccsccsccccccc"
   inkscape:label="AutoSatin 5"
   inkstitch:max_stitch_length_mm="8"
   inkstitch:zigzag_underlay_max_stitch_length_mm="5"
   inkstitch:reverse_rails="none"
   inkstitch:min_stitch_length_mm="0.5"
   inkstitch:min_jump_stitch_length_mm="3"
   inkstitch:start_at_nearest_point="False"
   inkstitch:end_at_nearest_point="False" />
    <path
   d="m 35.2095,-17.9233 -8.165,4.0123 c -1.1498,4.8987 -0.3346,10.4356 4.8719,12.6152"
   style="fill:none;stroke:#4e2990;stroke-width:0.5px;stroke-dasharray:3, 1"
   inkstitch:running_stitch_length_mm="2"
   id="autosatinrun256-1-1-1-1-1-1"
   inkscape:label="AutoSatin Running Stitch 6"
   inkstitch:ties="3"
   inkstitch:min_stitch_length_mm=".5"
   inkstitch:min_jump_stitch_length_mm="3"
   inkstitch:running_stitch_tolerance_mm="0.2" />
    <path
   id="autosatin325-1-1-1-1-1-1"
   style="display:inline;fill:none;stroke:#4e2990;stroke-width:1px"
   d="m 32.8737,-0.3511 c 0,0 -1.4593,0.1756 -1.4593,0.1756 0,-1e-4 -4.4593,0.1755 -4.4593,0.1755 0,0 -2.3516,-0.1445 -2.3516,-0.1445 0,0 -1.8359,-0.4493 -1.8359,-0.4493 0,0 -1.3672,-0.7773 -1.3672,-0.7773 0,0 -0.9453,-1.1289 -0.9453,-1.1289 0,0 -0.5703,-1.5039 -0.5703,-1.5039 0,0 -0.2422,-1.9024 -0.2422,-1.9024 0,0 0.0391,-2.3242 0.0391,-2.3242 0,0 0.2126,-2.1536 0.2126,-2.1536 M 32.9551,-1 c 0,0 -0.1406,-0.4219 -0.1406,-0.4219 0,0 -0.2344,-1.4531 -0.2344,-1.4531 0,0 -0.0469,-2.7656 -0.0469,-2.7656 0,0 0.4219,-4.3594 0.4219,-4.3594 0,0 1.2397,-7.438 1.2397,-7.438 m -15.025,7.5062 c 0,0 15.7232,-7.7602 15.7232,-7.7602"
   inkstitch:satin_column="True"
   inkstitch:ties="0"
   inkstitch:pull_compensation_mm="0.3"
   inkstitch:zigzag_underlay="True"
   inkstitch:zigzag_underlay_inset_mm="0.2"
   sodipodi:nodetypes="cccsccsccccccc"
   inkscape:label="AutoSatin 7"
   inkstitch:max_stitch_length_mm="8"
   inkstitch:zigzag_underlay_max_stitch_length_mm="5"
   inkstitch:reverse_rails="none"
   inkstitch:min_stitch_length_mm="0.5"
   inkstitch:min_jump_stitch_length_mm="3"
   inkstitch:start_at_nearest_point="False"
   inkstitch:end_at_nearest_point="False" />
  </g>
  <g
   inkscape:label="r"
   id="glyph-1-1-1-1-1-1-1-1-1-1-1-1-1-1-1-1-1-1-1-1-1-1-1-1-1-1-1-1-1-1-1-1-1-1-1-1"
   transform="translate(78.502)"
   inkstitch:letter-group="glyph">
    <path
   d="m 7.65177,-16.1737 c -0.76468,4.921 -3.0724,11.6107 2.87633,14.3534"
   style="display:inline;fill:none;stroke:#4e2990;stroke-width:0.5px;stroke-dasharray:3, 1;stroke-opacity:1"
   inkstitch:running_stitch_length_mm="2"
   id="autosatinrun187-1-1-1-1-1-1-1-1"
   inkscape:label="Points droits pour auto-remplissage satin 1"
   inkstitch:ties="3"
   inkstitch:min_stitch_length_mm=".5"
   inkstitch:min_jump_stitch_length_mm="3"
   inkstitch:running_stitch_tolerance_mm="0.2" />
    <path
   id="autosatin198-1-1-1-1-1-1-1-1"
   style="display:inline;fill:none;stroke:#4e2990;stroke-width:1px;stroke-opacity:1"
   d="M 11.4531,-0.5 9.92187,-0.1562 7.45312,0 4.81445,-0.1426 2.84375,-0.5781 1.45898,-1.3184 0.57812,-2.375 0.11914,-3.7598 0,-5.4844 0.13867,-7.5605 0.45312,-10 2.50037,-22.2835 M 12.4531,-1 12.3125,-1.4062 12.0781,-2.75 12.0312,-5.2188 12.4531,-9 15.2699,-24.2108 m 0.6202,0.0019 -14.04458,2.1204"
   inkstitch:satin_column="True"
   inkstitch:pull_compensation_mm="0.3"
   inkstitch:ties="0"
   inkstitch:zigzag_underlay="True"
   inkscape:label="Auto-remplissage satin 2"
   sodipodi:nodetypes="cccccccccccccccccccc"
   inkstitch:max_stitch_length_mm="8"
   inkstitch:zigzag_underlay_max_stitch_length_mm="5"
   inkstitch:reverse_rails="none"
   inkstitch:min_stitch_length_mm="0.5"
   inkstitch:min_jump_stitch_length_mm="3"
   inkstitch:zigzag_underlay_inset_mm="0.2"
   inkstitch:start_at_nearest_point="False"
   inkstitch:end_at_nearest_point="False" />
    <path
   d="m 16.3911,-24.38 -7.23487,-0.408 c 0.38976,-6.6097 4.22557,-13.4646 1.95387,-19.9313 -1.0098,-1.6318 -2.59225,-2.8055 -4.22474,-3.758"
   style="display:inline;fill:none;stroke:#4e2990;stroke-width:0.5px;stroke-dasharray:3, 1;stroke-opacity:1"
   inkstitch:running_stitch_length_mm="2"
   id="autosatinrun188-1-1-1-1-1-1-1-1"
   inkscape:label="Points droits pour auto-remplissage satin 3"
   inkstitch:ties="3"
   inkstitch:min_stitch_length_mm=".5"
   inkstitch:min_jump_stitch_length_mm="3"
   inkstitch:running_stitch_tolerance_mm="0.2" />
    <path
   id="autosatin199-1-1-1-1-1-1-1-1"
   style="display:inline;fill:none;stroke:#4e2990;stroke-width:1px;stroke-opacity:1"
   d="M 5.67187,-49.1562 6.45312,-49.5 7.98437,-49.8438 10.4531,-50 l 2.711,0.1483 2.1552,0.4495 1.6329,0.7575 1.144,1.0722 0.6887,1.3938 0.2667,1.7222 -0.1217,2.0573 -0.4768,2.3992 -1,4 -2.1832,11.7892 M 5.45312,-49 5.59374,-48.4375 5.82812,-46.75 5.875,-43.9375 5.45312,-40 2.50037,-22.2835 M 1.57812,-23.0407 17.6093,-25.141"
   inkstitch:satin_column="True"
   inkstitch:pull_compensation_mm="0.3"
   inkstitch:ties="0"
   inkstitch:zigzag_underlay="True"
   inkscape:label="Auto-remplissage satin 4"
   sodipodi:nodetypes="cccccccccccccccccccccc"
   inkstitch:max_stitch_length_mm="8"
   inkstitch:zigzag_underlay_max_stitch_length_mm="5"
   inkstitch:reverse_rails="none"
   inkstitch:min_stitch_length_mm="0.5"
   inkstitch:min_jump_stitch_length_mm="3"
   inkstitch:zigzag_underlay_inset_mm="0.2"
   inkstitch:start_at_nearest_point="False"
   inkstitch:end_at_nearest_point="False" />
    <path
   d="M 1.37921,-22.1143 15.0523,-23.0662"
   style="fill:none;stroke:#4e2990;stroke-width:1px;stroke-dasharray:3, 1"
   inkstitch:running_stitch_length_mm="2"
   inkstitch:running_stitch_tolerance_mm="0.2"
   id="path78-1-1-1-1-1-1-1-1" />
    <path
   id="autosatin200-1-1-1-1-1-1-1-1"
   style="display:inline;fill:none;stroke:#4e2990;stroke-width:1px;stroke-opacity:1"
   d="M 15.2139,-23.8046 17.4531,-36 c 6,-11 13,-14 17,-14 5,0 8,3 8,8 0,6 -3,9 -8,9 h -4 m -15.7766,11.6514 c 2.11,-5.8483 5.416,-9.2792 7.7766,-12.6514 3.3438,-4.7769 5,-6 7,-6 2,0 2,1 2,2 0,3 -0.8906,4.6797 -0.8906,4.6797 m -1.7368,-5.026 6.9634,-13.6078"
   sodipodi:nodetypes="ccsssccsssccc"
   inkstitch:satin_column="True"
   inkstitch:pull_compensation_mm="0.3"
   inkstitch:ties="0"
   inkstitch:zigzag_underlay="True"
   inkscape:label="Auto-remplissage satin 5"
   inkstitch:max_stitch_length_mm="8"
   inkstitch:zigzag_underlay_max_stitch_length_mm="5"
   inkstitch:reverse_rails="none"
   inkstitch:min_stitch_length_mm="0.5"
   inkstitch:min_jump_stitch_length_mm="3"
   inkstitch:zigzag_underlay_inset_mm="0.2"
   inkstitch:start_at_nearest_point="False"
   inkstitch:end_at_nearest_point="False" />
  </g>
  <g
   inkscape:label="é"
   id="glyph-1-1-1-1-1-1-1-1-1-1-1-1-1-1-1-1-1-1-1-1-1-1-1-1-1-1-1-1-1-1-1-1-1-1-1-1-1"
   transform="translate(121.516)"
   inkstitch:letter-group="glyph">
    <path
   d="M 7.12043,-20.0318 C 5.61801,-31.5517 12.6071,-44.5909 24.5088,-47.1193"
   style="display:inline;fill:none;stroke:#4e2990;stroke-width:0.5px;stroke-dasharray:3, 1"
   inkstitch:running_stitch_length_mm="2"
   id="autosatinrun98-1-1-1-1"
   inkscape:label="AutoSatin Running Stitch 1"
   inkstitch:ties="3"
   inkstitch:min_stitch_length_mm=".5"
   inkstitch:min_jump_stitch_length_mm="3"
   inkstitch:running_stitch_tolerance_mm="0.2" />
    <g
   id="g18-1-1-1-1"
   style="fill:none;stroke:#4e2990">
      <path
   d="m 24.5806,-59.41 c 8.0625,-2.1753 9.7275,-12.9982 18.2587,-14.5859 l 1.3138,-0.3542 1.3203,-0.2809"
   style="fill:none;stroke:#4e2990;stroke-width:0.5px;stroke-dasharray:3, 1"
   inkstitch:running_stitch_length_mm="2"
   id="autosatinrun99-1-1-1-1"
   inkscape:label="AutoSatin Running Stitch 2"
   inkstitch:ties="3"
   inkstitch:min_stitch_length_mm=".5"
   inkstitch:min_jump_stitch_length_mm="3"
   inkstitch:running_stitch_tolerance_mm="0.2" />
      <path
   id="autosatin131-1-1-1-1"
   style="display:inline;fill:none;stroke:#4e2990;stroke-width:1px"
   d="m 46.4387,-75 c 0,0 -2,-1 -6,-1 -5,0 -6.957,2.0291 -9,5 0,0 -8.0227,11.6662 -8.0227,11.6662 M 46.5524,-74.7219 C 46.5523,-74.7218 32.4387,-60 32.4387,-60 c -1.3259,1.383 -2,2 -5,2 -2,0 -4,-1 -4,-1 m 6.033,-11.3908 c 0,0 8.2608,6.5949 8.2608,6.5949"
   inkstitch:satin_column="True"
   inkstitch:ties="0"
   inkstitch:pull_compensation_mm="0.3"
   inkstitch:zigzag_underlay="True"
   inkstitch:zigzag_underlay_inset_mm="0.2"
   inkscape:label="AutoSatin 3"
   inkstitch:max_stitch_length_mm="8"
   inkstitch:zigzag_underlay_max_stitch_length_mm="5"
   inkstitch:reverse_rails="none"
   inkstitch:min_stitch_length_mm="0.5"
   inkstitch:min_jump_stitch_length_mm="3"
   inkstitch:force_lock_stitches="True"
   inkstitch:start_at_nearest_point="False"
   inkstitch:end_at_nearest_point="False" />
    </g>
    <path
   d="m 25.8018,-47.3433 c 8.753,-2.2019 12.6252,9.999 6.494,15.1517 -4.0212,4.6755 -10.2486,5.9628 -15.6363,8.3566 l -1.0094,0.9021 -1.011,0.9005"
   style="display:inline;fill:none;stroke:#4e2990;stroke-width:0.5px;stroke-dasharray:3, 1"
   inkstitch:running_stitch_length_mm="2"
   id="autosatinrun100-1-1-1-1"
   inkscape:label="AutoSatin Running Stitch 4"
   inkstitch:ties="3"
   inkstitch:min_stitch_length_mm=".5"
   inkstitch:min_jump_stitch_length_mm="3"
   inkstitch:running_stitch_tolerance_mm="0.2" />
    <path
   id="autosatin132-1-1-1-1"
   style="display:inline;fill:none;stroke:#4e2990;stroke-width:1px"
   d="m 13.4387,-21 c 18,-3 28,-10 28,-19 0,-5 -4,-10 -14,-10 -13,0 -26.99999,10 -26.99999,28 0,14 9.99999,22 22.99999,22 15,0 24.3239,-10.9327 25,-15 0.2653,-1.5963 -0.0095,-2.0814 -0.7585,-2.125 m -34.0896,-3.9004 c -0.1527,-1.7401 -0.2348,-3.288 -0.1519,-4.9746 13.7596,-4.12 17,-9 17,-16 0,-2 -1,-3 -3,-3 -6,0 -12.914,7.0075 -14,19 -0.1743,1.925 -0.0124,3.8286 0.2519,5.7417 1,8 5.7481,12.2583 13.7481,12.2583 11,0 17,-5 20,-9 M 29.5208,-51.9777 c 0,0 -2.8714,9.146 -2.8714,9.146 M 0,-30.0795 c 0,0 14.9481,2.0994 14.9481,2.0994 m 8.8907,17.5274 c 0,0 -4.2806,12.2287 -4.2806,12.2287"
   sodipodi:nodetypes="cssssscccssscsccccccc"
   inkstitch:satin_column="True"
   inkstitch:ties="0"
   inkstitch:pull_compensation_mm="0.3"
   inkstitch:zigzag_underlay="True"
   inkstitch:zigzag_underlay_inset_mm="0.2"
   inkscape:label="AutoSatin 5"
   inkstitch:max_stitch_length_mm="8"
   inkstitch:zigzag_underlay_max_stitch_length_mm="5"
   inkstitch:reverse_rails="none"
   inkstitch:min_stitch_length_mm="0.5"
   inkstitch:min_jump_stitch_length_mm="3"
   inkstitch:start_at_nearest_point="False"
   inkstitch:end_at_nearest_point="False" />
  </g>
  <g
   inkscape:label="n"
   id="glyph-1-1-1-1-1-1-1-1-1-1-1-1-1-1-1-1-1-1-1-1-1-1-1-1-1-1-1-1-1-1-1-1-1-1-1-1-1-1"
   transform="translate(167.502)"
   inkstitch:letter-group="glyph">
    <path
   d="M 7.53671,-15.9693 C 6.76101,-10.8617 4.10072,-3.8468 10.829,-1.4158"
   style="fill:none;stroke:#4e2990;stroke-width:0.5px;stroke-dasharray:3, 1"
   inkstitch:running_stitch_length_mm="2"
   id="autosatinrun181-1-1-1"
   inkscape:label="AutoSatin Running Stitch 1"
   inkstitch:min_stitch_length_mm=".5"
   inkstitch:min_jump_stitch_length_mm="3"
   inkstitch:running_stitch_tolerance_mm="0.2" />
    <path
   id="autosatin231-1-1-1"
   style="display:inline;fill:none;stroke:#4e2990;stroke-width:1px"
   d="M 12.4531,-1 12.3125,-1.5625 12.0781,-3.25 12.0312,-6.0625 12.4531,-10 15.6029,-26.3788 M 12.2904,-0.4972 11.3718,-0.2486 9.89644,-0.0777 7.45312,0 4.81445,-0.1426 2.84375,-0.5781 1.45898,-1.3184 0.57812,-2.375 0.11914,-3.7598 0,-5.4844 0.13867,-7.5605 0.45312,-10 3.23479,-26.69 m -1.48078,2.1956 14.95219,-1.2426"
   inkstitch:satin_column="True"
   inkstitch:ties="0"
   inkstitch:pull_compensation_mm="0.3"
   inkstitch:zigzag_underlay="True"
   inkstitch:zigzag_underlay_inset_mm="0.2"
   inkscape:label="AutoSatin 2"
   sodipodi:nodetypes="ccccccccccccccccccccc"
   inkstitch:max_stitch_length_mm="8"
   inkstitch:zigzag_underlay_max_stitch_length_mm="5"
   inkstitch:reverse_rails="none"
   inkstitch:min_stitch_length_mm="0.5"
   inkstitch:min_jump_stitch_length_mm="3"
   inkstitch:start_at_nearest_point="False"
   inkstitch:end_at_nearest_point="False" />
    <path
   d="m 2.10129,-26.7186 7.58909,-1.3067 c 0.36172,-5.8409 4.15512,-12.3115 0.97342,-17.8316 -0.9747,-1.1789 -2.28425,-2.0111 -3.59429,-2.7676"
   style="fill:none;stroke:#4e2990;stroke-width:0.5px;stroke-dasharray:3, 1"
   inkstitch:running_stitch_length_mm="2"
   id="autosatinrun182-1-1-1"
   inkscape:label="AutoSatin Running Stitch 3"
   inkstitch:min_stitch_length_mm=".5"
   inkstitch:min_jump_stitch_length_mm="3"
   inkstitch:running_stitch_tolerance_mm="0.2" />
    <path
   id="autosatin232-1-1-1"
   style="display:inline;fill:none;stroke:#4e2990;stroke-width:1px"
   d="m 5.45312,-49 c 0,0 0.14062,0.5625 0.14062,0.5625 0,0 0.23438,1.6875 0.23438,1.6875 0,0 0.04688,2.8125 0.04688,2.8125 0,0 -0.42188,3.9375 -0.42188,3.9375 0,0 -2.21833,13.31 -2.21833,13.31 m 2.63016,-22.7205 c 0,0 0.79409,-0.2948 0.79409,-0.2948 0,0 1.38968,-0.2026 1.38968,-0.2026 0,0 2.40438,-0.0921 2.40438,-0.0921 0,0 2.6816,0.1426 2.6816,0.1426 0,0 2.084,0.4355 2.084,0.4355 0,0 1.5449,0.7403 1.5449,0.7403 0,0 1.0645,1.0566 1.0645,1.0566 0,0 0.6426,1.3848 0.6426,1.3848 0,0 0.2793,1.7246 0.2793,1.7246 0,0 -0.0254,2.0761 -0.0254,2.0761 0,0 -0.2715,2.4395 -0.2715,2.4395 0,0 -1,4 -1,4 0,0 -1.8502,9.6212 -1.8502,9.6212 M 5.45331,-48.8759 c 0,0 0.52946,-0.5965 0.52946,-0.5965"
   inkstitch:satin_column="True"
   inkstitch:ties="0"
   inkstitch:pull_compensation_mm="0.3"
   inkstitch:zigzag_underlay="True"
   inkstitch:zigzag_underlay_inset_mm="0.2"
   inkscape:label="AutoSatin 4"
   inkstitch:max_stitch_length_mm="8"
   inkstitch:zigzag_underlay_max_stitch_length_mm="5"
   inkstitch:reverse_rails="none"
   inkstitch:min_stitch_length_mm="0.5"
   inkstitch:min_jump_stitch_length_mm="3"
   inkstitch:start_at_nearest_point="False"
   inkstitch:end_at_nearest_point="False" />
    <path
   id="autosatin233-1-1-1"
   style="display:inline;fill:none;stroke:#4e2990;stroke-width:1px"
   d="M 15.708,-27.3198 17.4531,-36 c 4,-6 11,-14 19,-14 6,0 11,4 11,10 0,2 -0.3714,5.0666 -1,8 l -3,14 c -1,5 0,9 4,9 4,0 7.7954,-2.857 10.7954,-7.857 m -42.784,-7.7119 C 20.6636,-33.5678 27.2738,-41 31.4531,-41 c 2,0 4,1 3,6 l -2,11 c -0.5657,3.1113 -2,9 -2,12 0,8 4,12 12,12 9,0 17.2789,-9.9522 18,-15 0.2828,-1.9799 0.1174,-1.8883 -0.8826,-1.8883 M 36.5848,-51.6369 32.5951,-39.764 M 46.0429,-11.2259 41.35,1.571 m 12.1665,-16.6517 8.7154,4.246"
   sodipodi:nodetypes="ccssscsccscssssccccccc"
   inkstitch:satin_column="True"
   inkstitch:ties="0"
   inkstitch:pull_compensation_mm="0.3"
   inkstitch:zigzag_underlay="True"
   inkstitch:zigzag_underlay_inset_mm="0.2"
   inkscape:label="AutoSatin 5"
   inkstitch:max_stitch_length_mm="8"
   inkstitch:zigzag_underlay_max_stitch_length_mm="5"
   inkstitch:reverse_rails="none"
   inkstitch:min_stitch_length_mm="0.5"
   inkstitch:min_jump_stitch_length_mm="3"
   inkstitch:start_at_nearest_point="False"
   inkstitch:end_at_nearest_point="False" />
  </g>
  <g
   inkscape:label="o"
   id="glyph-1-1-1-1-1-1-1-1-1-1-1-1-1-1-1-1-1-1-1-1-1-1-1-1-1-1-1-1-1-1-1-1-1-1-1-1-1-1-1"
   transform="translate(222.98)"
   inkstitch:letter-group="glyph">
    <path
   d="m 6.65487,-18.2697 c -0.64938,7.2938 4.13653,16.4919 12.48493,15.6837 8.5563,-0.3567 16.0357,-7.2557 18.1431,-15.3761 -0.0895,-1.4792 -2.133,-1.3823 -2.8136,-2.4417"
   style="display:inline;fill:none;stroke:#4e2990;stroke-width:0.5px;stroke-dasharray:3, 1;stroke-opacity:1"
   inkstitch:running_stitch_length_mm="2"
   id="autosatinrun156-1-1"
   inkscape:label="Points droits pour auto-remplissage satin 1"
   inkstitch:ties="3"
   inkstitch:min_stitch_length_mm=".5"
   inkstitch:min_jump_stitch_length_mm="3"
   inkstitch:running_stitch_tolerance_mm="0.2" />
    <path
   id="autosatin150-1-1"
   style="display:inline;fill:none;stroke:#4e2990;stroke-width:1px;stroke-opacity:1"
   d="m 31.9755,-23 c -1.6565,5.8936 -3.62,12.2728 -8.5222,16.3071 -2.3716,2.0484 -6.6692,2.4705 -8.5416,-0.4544 -2.7292,-4.1113 -1.8535,-9.3396 -1.4419,-13.9554 0.9045,-6.931 2.1686,-14.2376 6.4455,-19.968 2.2126,-3.0574 6.7514,-5.2138 10.248,-3.0156 2.7156,1.2646 2.2602,5.5701 3.2336,6.9616 3.1047,-1.076 6.8493,-0.2988 8.8437,2.4374 1.5705,1.9472 2.4201,4.3236 3.155,6.6815 m -10.7848,6.7709 c 3.4819,2.024 5.8495,2.3625 9.8853,1.3155 0.7855,1.0704 -0.8985,3.6465 -1.4207,5.1902 -3.151,6.7686 -9.4698,11.8315 -16.6866,13.652 C 20.889,0.29 14.7926,0.635 9.51276,-1.7276 3.90682,-4.1551 0.623814,-10.0829 0.148004,-15.9977 -0.758206,-26.2975 2.46177,-37.6123 10.7818,-44.246 c 6.2823,-5.0114 14.9453,-6.8479 22.7517,-5.0731 6.3128,1.3629 11.0206,7.0588 11.9636,13.3294 0.6465,3.6267 0.4413,7.3259 0.4784,10.9897 M 19.4371,-6.0753 16.5201,1.443 m 11.4402,-52.8248 -1.8937,7.4888 m 2.4965,25.1251 13.6317,-2.0113"
   inkstitch:satin_column="True"
   inkstitch:zigzag_underlay="True"
   inkstitch:center_walk_underlay="False"
   inkstitch:contour_underlay="False"
   inkstitch:pull_compensation_mm="0.3"
   inkstitch:ties="0"
   inkscape:label="Auto-remplissage satin 2"
   inkstitch:max_stitch_length_mm="8"
   inkstitch:zigzag_underlay_max_stitch_length_mm="5"
   inkstitch:reverse_rails="none"
   inkstitch:min_stitch_length_mm="0.5"
   inkstitch:min_jump_stitch_length_mm="3"
   sodipodi:nodetypes="ccccccccccccccccccccccccc"
   inkstitch:zigzag_underlay_inset_mm="0.2"
   inkstitch:start_at_nearest_point="False"
   inkstitch:end_at_nearest_point="False" />
    <path
   d="m 42.5623,-24.3248 c -3.9094,-3.2958 -7.7198,-6.7742 -12.1662,-9.3496"
   style="display:inline;fill:none;stroke:#4e2990;stroke-width:0.5px;stroke-dasharray:3, 1;stroke-opacity:1"
   inkstitch:running_stitch_length_mm="2"
   id="autosatinrun157-1-1"
   inkscape:label="Points droits pour auto-remplissage satin 3"
   inkstitch:ties="3"
   inkstitch:min_stitch_length_mm=".5"
   inkstitch:min_jump_stitch_length_mm="3"
   inkstitch:running_stitch_tolerance_mm="0.2" />
    <path
   id="autosatin151-1-1"
   style="display:inline;fill:none;stroke:#4e2990;stroke-width:1px;stroke-opacity:1"
   d="m 28.91,-34.0722 c -0.8368,0.9956 -0.9345,1.6057 -0.9345,3.0722 0,3 1.7812,6.2459 4,8 3.7242,2.9441 7.9099,3.9922 13,3 7.9133,-1.5425 13.4166,-6.1768 14,-10 0.2582,-1.6922 0.1647,-1.2475 -0.2766,-1.5827 m -28.966,-3.5672 c 0.875,-1.041 1.7,-1.3672 3.2426,-1.8501 7.6887,-2.4071 11.4019,3.1054 13,12 8,-1 11.6648,-6.7765 11.6648,-6.7765 m -11.042,5.5416 -2.3486,7.2836"
   inkstitch:satin_column="True"
   inkstitch:pull_compensation_mm="0.3"
   inkstitch:ties="0"
   inkstitch:zigzag_underlay="True"
   inkscape:label="Auto-remplissage satin 4"
   inkstitch:max_stitch_length_mm="8"
   inkstitch:zigzag_underlay_max_stitch_length_mm="5"
   inkstitch:reverse_rails="none"
   inkstitch:min_stitch_length_mm="0.5"
   inkstitch:min_jump_stitch_length_mm="3"
   sodipodi:nodetypes="cscccccccccc"
   inkstitch:zigzag_underlay_inset_mm="0.2"
   inkstitch:start_at_nearest_point="False"
   inkstitch:end_at_nearest_point="False" />
  </g>
  <g
   inkscape:label="m"
   id="glyph-1-1-1-1-1-1-1-1-1-1-1-1-1-1-1-1-1-1-1-1-1-1-1-1-1-1-1-1-1-1-1-1-1-1-1-1-1-1-1-1"
   transform="translate(276.459)"
   inkstitch:letter-group="glyph">
    <path
   d="m 8.08497,-17.004 c -0.41263,4.5116 -3.19552,9.9041 -0.08715,13.9342 0.86041,0.9249 1.91393,1.6341 2.93828,2.3605"
   style="display:inline;fill:none;stroke:#4e2990;stroke-width:0.5px;stroke-dasharray:3, 1"
   inkstitch:running_stitch_length_mm="2"
   id="autosatinrun178-1"
   inkscape:label="AutoSatin Running Stitch 1"
   inkstitch:ties="3"
   inkstitch:min_stitch_length_mm=".5"
   inkstitch:min_jump_stitch_length_mm="3"
   inkstitch:running_stitch_tolerance_mm="0.2" />
    <path
   id="autosatin226-1"
   style="display:inline;fill:none;stroke:#4e2990;stroke-width:1px"
   d="M 11.9003,0 10.0307,0.071 6.52883,0 4.15237,-0.3228 2.39482,-0.8429 1.1785,-1.5942 0.42571,-2.6104 0.05877,-3.9253 0,-5.5726 0.49621,-10 3.2904,-26.7651 M 12.1645,0 l 0.0764,-2.6889 0.2634,-3.1143 0.563,-4.0747 2.9366,-16.4451 m -14.68389,1.7721 16.77529,-1.099"
   inkstitch:satin_column="True"
   inkstitch:ties="0"
   inkstitch:pull_compensation_mm="0.3"
   inkstitch:zigzag_underlay="True"
   inkstitch:zigzag_underlay_inset_mm="0.2"
   sodipodi:nodetypes="cscccccscscccccccc"
   inkscape:label="AutoSatin 2"
   inkstitch:max_stitch_length_mm="8"
   inkstitch:zigzag_underlay_max_stitch_length_mm="5"
   inkstitch:reverse_rails="none"
   inkstitch:min_stitch_length_mm="0.5"
   inkstitch:min_jump_stitch_length_mm="3"
   inkstitch:start_at_nearest_point="False"
   inkstitch:end_at_nearest_point="False" />
    <path
   d="M 14.884,-26.3292 9.90638,-28.0344 C 10.236,-33.8386 13.8725,-40.4033 10.5576,-45.8037 9.54667,-46.9445 8.21508,-47.7323 6.87768,-48.4288"
   style="display:inline;fill:none;stroke:#4e2990;stroke-width:0.5px;stroke-dasharray:3, 1"
   inkstitch:running_stitch_length_mm="2"
   id="autosatinrun179-1"
   inkscape:label="AutoSatin Running Stitch 3"
   inkstitch:ties="3"
   inkstitch:min_stitch_length_mm=".5"
   inkstitch:min_jump_stitch_length_mm="3"
   inkstitch:running_stitch_tolerance_mm="0.2" />
    <path
   id="autosatin227-1"
   style="display:inline;fill:none;stroke:#4e2990;stroke-width:1px"
   d="m 5.49621,-49 c 0,0 0.21875,-0.1562 0.21875,-0.1562 0,0 0.78125,-0.3438 0.78125,-0.3438 0,0 1.53125,-0.3438 1.53125,-0.3438 0,0 2.46874,-0.1562 2.46874,-0.1562 0,0 2.6816,0.1426 2.6816,0.1426 0,0 2.084,0.4355 2.084,0.4355 0,0 1.5449,0.7403 1.5449,0.7403 0,0 1.0645,1.0566 1.0645,1.0566 0,0 0.6426,1.3848 0.6426,1.3848 0,0 0.2793,1.7246 0.2793,1.7246 0,0 -0.0254,2.0761 -0.0254,2.0761 0,0 -0.2715,2.4395 -0.2715,2.4395 0,0 -0.4289,2.1221 -0.4289,2.1221 0,0 -2.0634,11.5549 -2.0634,11.5549 M 5.34563,-48.6844 c 0,0 0.16415,0.5132 0.16415,0.5132 0,0 0.28614,1.579 0.28614,1.579 0,0 0.09863,2.704 0.09863,2.704 1e-5,0 -0.39834,3.8882 -0.39834,3.8882 0,0 -2.20581,13.2349 -2.20581,13.2349 m 2.29726,-22.3165 c 0,0 -0.22163,0.5159 -0.22163,0.5159"
   inkstitch:satin_column="True"
   inkstitch:ties="0"
   inkstitch:pull_compensation_mm="0.3"
   inkstitch:zigzag_underlay="True"
   inkstitch:zigzag_underlay_inset_mm="0.2"
   sodipodi:nodetypes="cscccccscsccc"
   inkscape:label="AutoSatin 4"
   inkstitch:max_stitch_length_mm="8"
   inkstitch:zigzag_underlay_max_stitch_length_mm="5"
   inkstitch:reverse_rails="none"
   inkstitch:min_stitch_length_mm="0.5"
   inkstitch:min_jump_stitch_length_mm="3"
   inkstitch:start_at_nearest_point="False"
   inkstitch:end_at_nearest_point="False" />
    <path
   d="m 2.18787,-26.9806 13.89433,0.2334"
   style="fill:none;stroke:#4e2990;stroke-width:1px;stroke-dasharray:3, 1"
   inkstitch:running_stitch_length_mm="2"
   inkstitch:running_stitch_tolerance_mm="0.2"
   id="path77-1" />
    <path
   id="autosatin228-1"
   style="display:inline;fill:none;stroke:#4e2990;stroke-width:1px"
   d="m 16.1252,-26.9628 c 0,0 2.0798,-11.5693 2.0798,-11.5693 0,0 1.2313,-2.2154 1.2313,-2.2154 0,0 1.4392,-2.1077 1.4392,-2.1077 0,0 1.6404,-1.9421 1.6404,-1.9421 0,0 1.8347,-1.7187 1.8347,-1.7187 0,0 2.0222,-1.4375 2.0222,-1.4375 0,0 2.2029,-1.0984 2.2029,-1.0984 0,0 2.3767,-0.7014 2.3767,-0.7014 0,0 2.5438,-0.2467 2.5438,-0.2467 0,0 2.1953,0.1836 2.1953,0.1836 0,0 2.0547,0.5352 2.0547,0.5352 0,0 1.8672,0.8632 1.8672,0.8632 0,0 1.6328,1.168 1.6328,1.168 0,0 1.3516,1.4492 1.3516,1.4492 0,0 1.0234,1.7071 1.0234,1.7071 0,0 0.6484,1.9414 0.6484,1.9414 0,0 0.2266,2.1523 0.2266,2.1523 0,0 0,3 0,3 0,0 -0.4551,3.7771 -0.4551,3.7771 0,0 -0.2122,1.3394 -0.2122,1.3394 m -27.7897,5.352 c 0,0 1.7019,-3.4112 1.7019,-3.4112 0,0 1.6459,-2.9483 1.6459,-2.9483 0,0 1.5973,-2.488 1.5973,-2.488 0,0 1.556,-2.0301 1.556,-2.0301 0,0 1.5218,-1.5747 1.5218,-1.5747 0,0 1.4951,-1.1218 1.4951,-1.1218 0,0 1.4756,-0.6712 1.4756,-0.6712 0,0 1.4634,-0.2232 1.4634,-0.2232 0,0 0.6869,0.0908 0.6869,0.0908 0,0 0.561,0.2742 0.561,0.2742 0,0 0.4356,0.4599 0.4356,0.4599 0,0 0.3108,0.6484 0.3108,0.6484 0,0 0.2493,1.8716 0.2493,1.8716 0,0 -0.2436,2.6551 -0.2436,2.6551 0,0 -1.1619,7.2617 -1.1619,7.2617 m 3.493,-23.6847 c 0,0 -4.4889,11.7405 -4.4889,11.7405"
   inkstitch:satin_column="True"
   inkstitch:ties="0"
   inkstitch:pull_compensation_mm="0.3"
   inkstitch:zigzag_underlay="True"
   inkstitch:zigzag_underlay_inset_mm="0.2"
   sodipodi:nodetypes="ccscccccsscsccccc"
   inkscape:label="AutoSatin 5"
   inkstitch:max_stitch_length_mm="8"
   inkstitch:zigzag_underlay_max_stitch_length_mm="5"
   inkstitch:reverse_rails="none"
   inkstitch:min_stitch_length_mm="0.5"
   inkstitch:min_jump_stitch_length_mm="3"
   inkstitch:start_at_nearest_point="False"
   inkstitch:end_at_nearest_point="False" />
    <path
   d="m 28.2442,-27.4266 8.3374,-2.3843 c -0.5704,8.3547 -4.8417,16.9702 -2.8491,25.193 0.9923,1.4851 2.5542,2.4633 4.1295,3.2298"
   style="fill:none;stroke:#4e2990;stroke-width:0.5px;stroke-dasharray:3, 1"
   inkstitch:running_stitch_length_mm="2"
   id="autosatinrun180-1"
   inkscape:label="AutoSatin Running Stitch 6"
   inkstitch:ties="3"
   inkstitch:min_stitch_length_mm=".5"
   inkstitch:min_jump_stitch_length_mm="3"
   inkstitch:running_stitch_tolerance_mm="0.2" />
    <path
   id="autosatin229-1"
   style="display:inline;fill:none;stroke:#4e2990;stroke-width:1px"
   d="M 39.4195,-0.6009 38.4578,-0.3005 36.953,-0.0939 34.4962,0 31.8146,-0.1426 29.7306,-0.5781 28.1857,-1.3184 27.1212,-2.375 26.4786,-3.7598 26.1993,-5.4844 26.2247,-7.5605 26.4962,-10 29.3343,-27.7383 M 39.4962,-1 39.3556,-1.5625 39.1212,-3.25 39.0743,-6.0625 c 0,0 0.4219,-3.9375 0.4219,-3.9375 l 2.1862,-10.082 1.6795,-8.854 0.467,-2.9475 m -17.4622,10.8543 17.7535,-1.9305"
   inkstitch:satin_column="True"
   inkstitch:ties="0"
   inkstitch:pull_compensation_mm="0.3"
   inkstitch:zigzag_underlay="True"
   inkstitch:zigzag_underlay_inset_mm="0.2"
   sodipodi:nodetypes="ccscccccsscsccccccccccc"
   inkscape:label="AutoSatin 7"
   inkstitch:max_stitch_length_mm="8"
   inkstitch:zigzag_underlay_max_stitch_length_mm="5"
   inkstitch:reverse_rails="none"
   inkstitch:min_stitch_length_mm="0.5"
   inkstitch:min_jump_stitch_length_mm="3"
   inkstitch:start_at_nearest_point="False"
   inkstitch:end_at_nearest_point="False" />
    <path
   id="autosatin230-1"
   style="display:inline;fill:none;stroke:#4e2990;stroke-width:1px"
   d="m 43.2027,-28.25 c 6.6466,-8.9838 8.5224,-12.8854 12.2935,-12.75 2.2832,0.082 3,1 2,6 0,0 -2,11 -2,11 -1,4 -1,9 -1,12 0,8 4,12 12,12 9,0 16.2789,-9.9522 17,-15 0.2828,-1.9799 0.348,-2.1681 -0.652,-2.1681 M 60.9404,-51.9308 c 0,0 -5.7079,12.5507 -5.7079,12.5507 m -0.3757,11.0076 c 0,0 15.6144,1.8286 15.6144,1.8286 m -0.1136,15.4896 c 0,0 -6.0799,12.8333 -6.0799,12.8333 M 43.8105,-31.4779 c 0,0 0.6857,-5.5221 0.6857,-5.5221 3,-6 9,-13 16,-13 6,0 10,4 10,10 0,2 -0.5757,5.0302 -1,8 0,0 -2,14 -2,14 -1,6 0,9 4,9 4,0 8,-3 11,-8"
   inkstitch:satin_column="True"
   inkstitch:ties="0"
   inkstitch:pull_compensation_mm="0.3"
   inkstitch:zigzag_underlay="True"
   inkstitch:zigzag_underlay_inset_mm="0.2"
   sodipodi:nodetypes="csccssscccccccccssscsc"
   inkscape:label="AutoSatin 8"
   inkstitch:max_stitch_length_mm="8"
   inkstitch:zigzag_underlay_max_stitch_length_mm="5"
   inkstitch:reverse_rails="none"
   inkstitch:min_stitch_length_mm="0.5"
   inkstitch:min_jump_stitch_length_mm="3"
   inkstitch:start_at_nearest_point="False"
   inkstitch:end_at_nearest_point="False" />
  </g>
  </g></g></g></g></g></svg>
